<svg width="199" height="158" viewBox="0 0 199 158" fill="none" xmlns="http://www.w3.org/2000/svg">
<path fill-rule="evenodd" clip-rule="evenodd" d="M162.704 77.8726C188.864 57.1179 199.505 45.2944 198.982 23.2992C176.133 23.4767 164.396 33.7955 144.252 59.7336H130.179L122.595 69.8195L134.479 72.3214V74.2761C134.251 74.7681 134.023 75.2285 133.807 75.6621C132.961 77.3656 132.321 78.656 132.759 79.8272C135.419 84.2418 137.553 86.3429 142.454 89.444C143.531 89.8488 144.98 89.1439 146.783 88.2668L146.783 88.2668C147.198 88.0651 147.631 87.8543 148.083 87.6457H149.959L152.461 99.6081L162.704 92.0241V77.8726ZM182.172 47.0677C182.172 50.6085 179.302 53.4789 175.761 53.4789C172.22 53.4789 169.35 50.6085 169.35 47.0677C169.35 43.5268 172.22 40.6565 175.761 40.6565C179.302 40.6565 182.172 43.5268 182.172 47.0677ZM129.709 81.5473L128.458 80.3745C122.267 86.5397 120.353 91.1808 120.327 102.032C131.111 101.772 135.801 99.9087 141.985 93.8224L140.577 92.7278C135.408 96.1196 132.11 96.8485 125.644 96.6371C125.5 90.0151 126.31 86.6774 129.709 81.5473Z" fill="#0A6ECF"/>
<path d="M159.654 9.61682L152.383 9.38226L149.569 2.18921L147.145 9.38226L139.639 9.61682L145.425 14.6989L143.47 22.1265L149.569 17.9045L155.745 22.1265L153.947 14.6989L159.654 9.61682Z" fill="#0A6ECF"/>
<path d="M135.964 33.1506L128.693 32.916L125.878 25.723L123.455 32.916L115.949 33.1506L121.735 38.2326L119.78 45.6602L125.878 41.4382L132.055 45.6602L130.257 38.2326L135.964 33.1506Z" fill="#0A6ECF"/>
<path d="M122.125 7.42761L114.854 7.19305L112.04 0L109.616 7.19305L102.11 7.42761L107.896 12.5097L105.941 19.9373L112.04 15.7153L118.216 19.9373L116.418 12.5097L122.125 7.42761Z" fill="#0A6ECF"/>
<path d="M148.787 123.689C149.178 122.751 150.266 131.64 148.787 136.042L142.375 137.763C142.375 137.763 148.396 124.627 148.787 123.689Z" fill="#0A6ECF"/>
<path d="M32.4469 155.667C62.7595 159.562 137.293 159.264 139.404 148.396C145.198 145.24 146.93 142.265 148.865 136.043C148.178 133.952 147.817 132.539 146.988 131.899C107.595 125.549 57.9825 111.523 32.4469 155.667Z" fill="#053E75"/>
<path fill-rule="evenodd" clip-rule="evenodd" d="M66.4575 149.178C71.2181 149.178 75.7635 148.259 79.9255 146.589C84.9359 151.773 91.7665 154.963 99.2953 154.963C114.668 154.963 127.129 141.662 127.129 125.253C127.129 108.844 114.668 95.5425 99.2953 95.5425C98.8644 95.5425 98.4357 95.5529 98.0096 95.5736C91.8324 84.5464 80.0175 77.0907 66.4575 77.0907C49.6995 77.0907 35.6068 88.4779 31.5268 103.921C29.8044 103.554 28.0201 103.361 26.1921 103.361C11.7266 103.361 0 115.438 0 130.335C0 145.232 11.7266 157.309 26.1921 157.309C35.6407 157.309 43.9208 152.156 48.5276 144.431C53.811 147.451 59.9322 149.178 66.4575 149.178Z" fill="#0A6ECF"/>
<path fill-rule="evenodd" clip-rule="evenodd" d="M79.9255 146.589C75.7635 148.259 71.2181 149.178 66.4576 149.178C59.9322 149.178 53.811 147.451 48.5277 144.431C43.9208 152.156 35.6407 157.309 26.1921 157.309C13.5051 157.309 2.92497 148.019 0.515106 135.685C3.01657 121.72 14.3318 111.18 27.9122 111.18C29.2233 111.18 30.5132 111.278 31.7762 111.468C36.1981 96.2169 50.2964 85.0657 67.0049 85.0657C80.4508 85.0657 92.2065 92.2873 98.5891 103.056C98.7979 103.051 99.0073 103.048 99.2172 103.048C110.635 103.048 120.487 110.341 125.049 120.878C125.574 120.535 126.121 120.223 126.686 119.945C126.977 121.667 127.129 123.441 127.129 125.253C127.129 141.662 114.668 154.963 99.2954 154.963C91.7665 154.963 84.9359 151.773 79.9255 146.589Z" fill="#053E75"/>
<path fill-rule="evenodd" clip-rule="evenodd" d="M151.572 131.117C149.169 132.558 146.374 133.384 143.392 133.384C141.922 133.384 140.497 133.183 139.142 132.807C137.003 134.814 134.125 136.042 130.96 136.042C126.017 136.042 121.774 133.044 119.951 128.766C119.588 128.821 119.218 128.849 118.842 128.849C114.524 128.849 111.023 125.104 111.023 120.484C111.023 115.863 114.524 112.118 118.842 112.118C120.863 112.118 122.704 112.938 124.092 114.285C125.152 113.54 126.338 112.964 127.611 112.593C129.375 105.314 135.771 99.9209 143.392 99.9209C149.333 99.9209 154.53 103.199 157.368 108.092C158.518 107.76 159.731 107.583 160.984 107.583C168.367 107.583 174.353 113.744 174.353 121.344C174.353 128.943 168.367 135.104 160.984 135.104C157.313 135.104 153.988 133.582 151.572 131.117Z" fill="#2E98FF"/>
<path fill-rule="evenodd" clip-rule="evenodd" d="M143.392 133.384C146.374 133.384 149.169 132.558 151.572 131.117C153.988 133.582 157.313 135.104 160.984 135.104C167.845 135.104 173.5 129.784 174.265 122.933C173.525 116.842 168.211 112.118 161.765 112.118C160.354 112.118 158.996 112.344 157.729 112.762C154.834 108.344 149.601 105.394 143.626 105.394C135.659 105.394 129.01 110.641 127.467 117.618C126.398 118.075 125.412 118.682 124.537 119.412C123.101 118.087 121.183 117.278 119.076 117.278C115.45 117.278 112.383 119.675 111.375 122.971C112.364 126.377 115.333 128.849 118.842 128.849C119.218 128.849 119.588 128.821 119.951 128.766C121.774 133.044 126.017 136.042 130.96 136.042C134.125 136.042 137.003 134.814 139.142 132.807C140.497 133.183 141.921 133.384 143.392 133.384Z" fill="#0555A2"/>
</svg>
