<svg width="225" height="226" viewBox="0 0 225 226" fill="none" xmlns="http://www.w3.org/2000/svg">
<path fill-rule="evenodd" clip-rule="evenodd" d="M196.838 179.976C211.34 161.571 220 138.305 220 113C220 53.3323 171.85 5 112.5 5C53.1503 5 5 53.3323 5 113C5 138.305 13.6602 161.571 28.162 179.976C28.0545 179.073 28 178.162 28 177.245C28 159.492 48.4176 144.208 77.7567 137.347C87.9428 143.792 99.819 147.489 112.5 147.489C125.181 147.489 137.057 143.792 147.243 137.347C176.582 144.208 197 159.492 197 177.245C197 178.162 196.945 179.073 196.838 179.976ZM188.994 195.859C211.141 175.222 225 145.737 225 113C225 50.5918 174.632 0 112.5 0C50.368 0 0 50.5918 0 113C0 145.737 13.8593 175.222 36.0058 195.859C38.9795 199.13 42.7126 202.179 47.0875 204.946C65.5197 218.199 88.1029 226 112.5 226C136.897 226 159.48 218.199 177.913 204.946C182.287 202.179 186.02 199.13 188.994 195.859ZM155 85.5C155 112.838 135.748 135 112 135C88.2518 135 69 112.838 69 85.5C69 58.1619 88.2518 36 112 36C135.748 36 155 58.1619 155 85.5Z" fill="url(#paint0_linear)"/>
<defs>
<linearGradient id="paint0_linear" x1="57.5" y1="-2.62594e-06" x2="202.5" y2="272.5" gradientUnits="userSpaceOnUse">
<stop/>
<stop offset="1" stop-opacity="0.35"/>
</linearGradient>
</defs>
</svg>
